<?xml version="1.0" encoding="utf-8"?>
<!-- Generator: Adobe Illustrator 28.0.0, SVG Export Plug-In . SVG Version: 6.00 Build 0)  -->
<svg version="1.1" baseProfile="basic" id="Capa_1" xmlns="http://www.w3.org/2000/svg" xmlns:xlink="http://www.w3.org/1999/xlink"
	 x="0px" y="0px" viewBox="0 0 45.57 45.58" xml:space="preserve">
<style type="text/css">
	.st0{fill:#EC2024;}
	.st1{fill:#FFFFFF;}
	.st2{fill:#3AB54A;}
	.st3{fill:#005942;}
	.st4{fill:#FBB03B;}
	.st5{fill:#FF0000;}
	.st6{fill:#FF9D00;}
	.st7{fill:#FF8B00;}
</style>
<circle class="st5" cx="22.78" cy="22.79" r="22.79"/>
<g>
	<path class="st1" d="M37.64,27.33h-2.09v-1.32c0-0.9-0.1-1.79-0.3-2.65c2.09-0.89,3.55-2.96,3.55-5.37c0-1.46-0.54-2.86-1.52-3.93
		c-0.18-0.19-0.47-0.21-0.66-0.03c-0.19,0.18-0.21,0.47-0.03,0.67c0.82,0.9,1.28,2.08,1.28,3.3c0,2.7-2.2,4.9-4.9,4.9
		c-2.7,0-4.9-2.2-4.9-4.9s2.2-4.9,4.9-4.9c0.75,0,1.46,0.16,2.13,0.49c0.23,0.11,0.52,0.02,0.63-0.22c0.11-0.23,0.02-0.52-0.22-0.63
		c-0.8-0.39-1.65-0.58-2.54-0.58c-2.09,0-3.93,1.11-4.97,2.77c-1.14-0.45-2.34-0.72-3.57-0.81v-1.57l0.55-0.73
		c0.2-0.27,0.24-0.62,0.09-0.93c-0.15-0.3-0.45-0.49-0.79-0.49h-3c-0.34,0-0.64,0.19-0.79,0.49c-0.15,0.3-0.12,0.66,0.09,0.93
		l0.55,0.73v1.58c-1.6,0.12-3.16,0.56-4.58,1.29c-1.62,0.83-3.05,2.05-4.14,3.52c-0.15,0.21-0.11,0.5,0.1,0.66
		c0.08,0.06,0.18,0.09,0.28,0.09c0.14,0,0.29-0.07,0.38-0.19c1-1.35,2.32-2.47,3.81-3.24c1.56-0.81,3.26-1.21,5.03-1.21h1.6
		c1.37,0,2.69,0.25,3.95,0.73c-0.29,0.69-0.44,1.44-0.44,2.23c0,3.22,2.62,5.84,5.84,5.84c0.48,0,0.94-0.06,1.39-0.17
		c0.17,0.77,0.25,1.56,0.25,2.35v1.32h-3.58c-0.26,0-0.47,0.21-0.47,0.47s0.21,0.47,0.47,0.47h6.61c0.13,0,0.23,0.1,0.23,0.23v1.28
		c0,0.13-0.1,0.23-0.23,0.23h-1.86c-0.13,0-0.26,0.05-0.34,0.15l-1.35,1.45c-0.09,0.1-0.22,0.16-0.36,0.16H11.84
		c-0.14,0-0.27-0.06-0.36-0.16l-1.35-1.45c-0.09-0.1-0.21-0.15-0.34-0.15H7.92c-0.13,0-0.23-0.1-0.23-0.23V28.5
		c0-0.13,0.1-0.23,0.23-0.23h21.1c0.26,0,0.47-0.21,0.47-0.47s-0.21-0.47-0.47-0.47H11.02v-1.32c0-1.72,0.39-3.36,1.14-4.89
		c0.12-0.23,0.02-0.52-0.21-0.63c-0.23-0.12-0.52-0.02-0.63,0.21c-0.83,1.66-1.24,3.44-1.24,5.31v1.32H7.92
		c-0.65,0-1.17,0.53-1.17,1.17v1.28c0,0.65,0.53,1.17,1.17,1.17h1.65l1.21,1.3c0.27,0.29,0.65,0.46,1.05,0.46h21.88
		c0.4,0,0.78-0.17,1.05-0.46l1.21-1.3h1.65c0.65,0,1.17-0.53,1.17-1.17V28.5C38.81,27.86,38.28,27.33,37.64,27.33L37.64,27.33z
		 M24.16,11.33l-0.58,0.76c-0.06,0.08-0.1,0.18-0.1,0.29v1.7h-1.41v-1.7c0-0.1-0.03-0.2-0.1-0.29l-0.58-0.76L24.16,11.33z"/>
	<path class="st1" d="M32.36,19.66c-0.15,0.01-0.27-0.05-0.37-0.15c-0.42-0.39-0.83-0.78-1.25-1.18c-0.23-0.22-0.24-0.52-0.05-0.73
		c0.2-0.22,0.52-0.22,0.75-0.01c0.27,0.25,0.53,0.49,0.79,0.75c0.08,0.07,0.12,0.08,0.19,0c0.75-0.77,1.5-1.54,2.25-2.3
		c0.1-0.11,0.2-0.22,0.35-0.26c0.24-0.07,0.48,0.02,0.6,0.22c0.12,0.2,0.09,0.45-0.08,0.63c-0.39,0.41-0.79,0.82-1.19,1.22
		c-0.53,0.55-1.07,1.09-1.6,1.64C32.65,19.58,32.53,19.67,32.36,19.66z"/>
</g>
</svg>
