<?xml version="1.0" encoding="utf-8"?>
<!-- Generator: Adobe Illustrator 28.0.0, SVG Export Plug-In . SVG Version: 6.00 Build 0)  -->
<svg version="1.1" baseProfile="basic" id="Capa_1" xmlns="http://www.w3.org/2000/svg" xmlns:xlink="http://www.w3.org/1999/xlink"
	 x="0px" y="0px" viewBox="0 0 41.07 42.64" xml:space="preserve">
<style type="text/css">
	.st0{fill:#EC2024;}
	.st1{fill:#FFFFFF;}
	.st2{fill:#3AB54A;}
	.st3{fill:#005942;}
	.st4{fill:#FBB03B;}
	.st5{fill:#FF0000;}
	.st6{fill:#FF9D00;}
	.st7{fill:#FF8B00;}
</style>
<g>
	<g>
		<path class="st3" d="M5.65,42.64h29.76c3.12,0,5.65-2.54,5.65-5.65V8.81c0-3.12-2.54-5.65-5.65-5.65h-2.24V1.58
			c0-0.87-0.71-1.58-1.58-1.58c-0.87,0-1.58,0.71-1.58,1.58v1.58H11.06V1.58C11.06,0.71,10.35,0,9.48,0S7.9,0.71,7.9,1.58v1.58H5.65
			C2.54,3.16,0,5.69,0,8.81v28.18C0,40.11,2.54,42.64,5.65,42.64L5.65,42.64z M3.16,8.81c0-1.37,1.12-2.5,2.5-2.5H7.9V7.9
			c0,0.87,0.71,1.58,1.58,1.58c0.87,0,1.58-0.71,1.58-1.58V6.32h18.95V7.9c0,0.87,0.71,1.58,1.58,1.58s1.58-0.71,1.58-1.58V6.32
			h2.24c1.37,0,2.5,1.12,2.5,2.5v4.61H3.16L3.16,8.81z M3.16,16.58h34.75v20.41c0,1.37-1.12,2.5-2.5,2.5H5.65
			c-1.37,0-2.5-1.12-2.5-2.5L3.16,16.58z"/>
	</g>
</g>
</svg>
