<?xml version="1.0" encoding="utf-8"?>
<!-- Generator: Adobe Illustrator 28.0.0, SVG Export Plug-In . SVG Version: 6.00 Build 0)  -->
<svg version="1.1" baseProfile="basic" id="Capa_1" xmlns="http://www.w3.org/2000/svg" xmlns:xlink="http://www.w3.org/1999/xlink"
	 x="0px" y="0px" viewBox="0 0 23.27 23.34" xml:space="preserve">
<style type="text/css">
	.st0{fill:#EC2024;}
	.st1{fill:#FFFFFF;}
	.st2{fill:#3AB54A;}
	.st3{fill:#005942;}
	.st4{fill:#FBB03B;}
	.st5{fill:#FF0000;}
	.st6{fill:#FF9D00;}
	.st7{fill:#FF8B00;}
</style>
<g>
	<circle class="st6" cx="11.63" cy="11.66" r="11.64"/>
	<g>
		<path class="st1" d="M15.17,10.02c-0.15-0.15-0.35-0.2-0.54-0.16l-2.44-3.1c-0.1-0.13-0.29-0.15-0.42-0.05
			c-0.13,0.1-0.15,0.29-0.05,0.42l2.43,3.08l-0.43,0.43l-2.17-2.63c-0.03-0.03-0.06-0.06-0.09-0.08c-1.06-0.54-2.05-0.5-2.69-0.37
			C8.01,7.71,7.32,8.05,6.89,8.48C6.54,8.83,6.42,9.2,6.57,9.49c0.02,0.04,0.05,0.07,0.08,0.1l4.51,3.6l-0.43,0.43L4.98,9.1
			c-0.2-0.16-0.35-0.48-0.37-0.82C4.6,8.01,4.67,7.78,4.8,7.65l3.37-3.37C8.3,4.15,8.53,4.08,8.8,4.1c0.34,0.02,0.66,0.16,0.82,0.37
			l0.44,0.56c0.1,0.13,0.29,0.15,0.42,0.05c0.13-0.1,0.15-0.29,0.05-0.42L10.08,4.1C9.82,3.76,9.34,3.53,8.83,3.5
			C8.39,3.48,8,3.6,7.74,3.86L4.38,7.23C4.12,7.48,3.99,7.87,4.02,8.31C4.05,8.82,4.28,9.3,4.61,9.56l5.76,4.54
			c-0.01,0.04-0.01,0.08-0.01,0.12c0,0.16,0.06,0.31,0.17,0.42l1.05,1.05c0.39,0.39,0.92,0.61,1.47,0.61s1.08-0.22,1.47-0.61
			l1.68-1.68c0.39-0.39,0.61-0.92,0.61-1.47c0-0.56-0.22-1.08-0.61-1.47L15.17,10.02z M7.11,9.19C7.13,9.1,7.26,8.9,7.59,8.67
			C8.42,8.1,9.82,7.8,11.12,8.44l2.17,2.62l-1.71,1.71L7.11,9.19z M14.74,10.44l0.42,0.42l-3.79,3.79l-0.42-0.42L14.74,10.44z
			 M15.99,13.36l-0.2-0.2c-0.12-0.12-0.3-0.12-0.42,0c-0.12,0.12-0.12,0.3,0,0.42l0.22,0.22l-0.42,0.42l-0.22-0.22
			c-0.12-0.12-0.3-0.12-0.42,0c-0.12,0.12-0.12,0.3,0,0.42l0.22,0.22l-0.42,0.42l-0.22-0.22c-0.12-0.12-0.3-0.12-0.42,0
			c-0.12,0.12-0.12,0.3,0,0.42l0.2,0.2c-0.24,0.16-0.52,0.24-0.82,0.24c-0.4,0-0.77-0.15-1.05-0.43l-0.21-0.21l3.79-3.79l0.21,0.21
			c0.28,0.28,0.43,0.65,0.43,1.05C16.23,12.84,16.15,13.12,15.99,13.36z"/>
		<path class="st1" d="M19.17,16.55c-0.11-0.12-0.3-0.13-0.42-0.02c-0.12,0.11-0.13,0.3-0.02,0.42l0,0c0.06,0.06,0.14,0.1,0.22,0.1
			c0.07,0,0.14-0.03,0.2-0.08C19.28,16.86,19.29,16.67,19.17,16.55L19.17,16.55z"/>
		<path class="st1" d="M17.07,18.22c-0.12,0.11-0.13,0.3-0.02,0.42l0,0c0.06,0.06,0.14,0.1,0.22,0.1c0.07,0,0.14-0.03,0.2-0.08
			c0.12-0.11,0.13-0.3,0.02-0.42C17.38,18.11,17.19,18.11,17.07,18.22L17.07,18.22z"/>
		<path class="st1" d="M17.88,15.26c-0.13-0.11-0.31-0.09-0.42,0.04c-0.11,0.13-0.09,0.31,0.04,0.42l0,0
			c0.06,0.05,0.12,0.07,0.19,0.07c0.09,0,0.17-0.04,0.23-0.11C18.03,15.55,18.01,15.37,17.88,15.26L17.88,15.26z"/>
		<path class="st1" d="M17.28,16.74c-0.12,0.11-0.13,0.3-0.02,0.42l0,0c0.06,0.06,0.14,0.1,0.22,0.1c0.07,0,0.14-0.03,0.2-0.08
			c0.12-0.11,0.13-0.3,0.02-0.42C17.59,16.64,17.4,16.63,17.28,16.74L17.28,16.74z"/>
		<path class="st1" d="M16,15.5c-0.11,0.12-0.1,0.31,0.02,0.42l0,0c0.06,0.05,0.13,0.08,0.2,0.08c0.08,0,0.16-0.03,0.22-0.1
			c0.11-0.12,0.1-0.31-0.02-0.42C16.3,15.37,16.11,15.38,16,15.5L16,15.5z"/>
		<path class="st1" d="M16.2,16.95c-0.13-0.11-0.31-0.09-0.42,0.04c-0.11,0.13-0.09,0.31,0.04,0.42l0,0
			c0.06,0.05,0.12,0.07,0.19,0.07c0.09,0,0.17-0.04,0.23-0.11C16.34,17.24,16.33,17.05,16.2,16.95L16.2,16.95z"/>
		<path class="st1" d="M11.12,6.19c0.16,0,0.3-0.13,0.3-0.3s-0.13-0.3-0.3-0.3h0c-0.16,0-0.3,0.13-0.3,0.3S10.95,6.19,11.12,6.19z"
			/>
	</g>
</g>
</svg>
