<?xml version="1.0" encoding="utf-8"?>
<!-- Generator: Adobe Illustrator 28.0.0, SVG Export Plug-In . SVG Version: 6.00 Build 0)  -->
<svg version="1.1" baseProfile="basic" id="Capa_1" xmlns="http://www.w3.org/2000/svg" xmlns:xlink="http://www.w3.org/1999/xlink"
	 x="0px" y="0px" viewBox="0 0 26.86 26.85" xml:space="preserve">
<style type="text/css">
	.st0{fill:#EC2024;}
	.st1{fill:#FFFFFF;}
	.st2{fill:#3AB54A;}
	.st3{fill:#005942;}
	.st4{fill:#FBB03B;}
	.st5{fill:#FF0000;}
	.st6{fill:#FF9D00;}
	.st7{fill:#FF8B00;}
</style>
<g>
	<path class="st3" d="M25.53,7.69c-1.09-2.32-2.82-4.26-5.01-5.63c-3.03-1.89-6.63-2.49-10.11-1.69c-3.48,0.8-6.45,2.91-8.34,5.95
		c-1.9,3.03-2.5,6.62-1.69,10.11s2.92,6.45,5.95,8.34c2.13,1.33,4.58,2.04,7.09,2.04h0.16c2.49-0.03,4.92-0.75,7.02-2.08
		c0.61-0.39,0.79-1.19,0.4-1.8c-0.39-0.61-1.19-0.79-1.8-0.4c-1.69,1.07-3.65,1.65-5.65,1.68c-0.04,0-0.09,0-0.13,0
		c-2.01,0-3.98-0.56-5.7-1.64c-5.04-3.15-6.57-9.82-3.42-14.85c3.15-5.04,9.81-6.57,14.85-3.43c1.76,1.1,3.15,2.66,4.03,4.52
		c0.86,1.81,1.19,3.83,0.97,5.82c-0.08,0.72,0.43,1.37,1.16,1.44c0.72,0.08,1.37-0.43,1.44-1.16C27.01,12.44,26.59,9.94,25.53,7.69
		L25.53,7.69z"/>
	<path class="st3" d="M12.12,12.11h-3.8c-0.72,0-1.31,0.59-1.31,1.31c0,0.72,0.59,1.31,1.31,1.31h3.8h2.62h3.8
		c0.72,0,1.31-0.59,1.31-1.31s-0.59-1.31-1.31-1.31h-3.8H12.12z"/>
</g>
</svg>
