<?xml version="1.0" encoding="utf-8"?>
<!-- Generator: Adobe Illustrator 28.0.0, SVG Export Plug-In . SVG Version: 6.00 Build 0)  -->
<svg version="1.1" baseProfile="basic" id="Capa_1" xmlns="http://www.w3.org/2000/svg" xmlns:xlink="http://www.w3.org/1999/xlink"
	 x="0px" y="0px" viewBox="0 0 71.83 71.83" xml:space="preserve">
<style type="text/css">
	.st0{fill:#EC2024;}
	.st1{fill:#FFFFFF;}
	.st2{fill:#3AB54A;}
	.st3{fill:#005942;}
	.st4{fill:#FBB03B;}
	.st5{fill:#FF0000;}
	.st6{fill:#FF9D00;}
	.st7{fill:#FF8B00;}
</style>
<g>
	<path class="st7" d="M57.22,71.83H14.61C6.54,71.83,0,65.29,0,57.22V14.61C0,6.54,6.54,0,14.61,0h42.61
		c8.07,0,14.61,6.54,14.61,14.61v42.61C71.83,65.29,65.29,71.83,57.22,71.83z"/>
	<g>
		<g id="XMLID_1_">
			<g>
				<path class="st1" d="M63.03,43.59v7.02c0,3.45-2.79,6.24-6.26,6.24H45.33c0.02,0.03,4.19,4,4.21,4.02
					c1.19,1.21-0.64,3.02-1.84,1.83l-6.48-6.19c-0.48-0.52-0.48-1.34,0-1.86l6.48-6.19c1.24-1.22,3.07,0.69,1.79,1.86l-4.15,3.96
					h11.45c2.03,0,3.67-1.64,3.67-3.65v-7.03c0-0.72,0.59-1.29,1.29-1.29C62.46,42.3,63.03,42.87,63.03,43.59L63.03,43.59z"/>
				<path class="st1" d="M62.67,16.61c0.71,0.86,0.24,10.84,0.36,12.05c0,1.53-0.83,2.97-2.15,3.74l-9,5.19
					c-1.36,0.76-2.97,0.76-4.33,0l-9-5.19c-1.33-0.78-2.15-2.21-2.15-3.74v-10.4c0.02-1.55,0.83-2.95,2.15-3.74l9-5.19
					c1.34-0.78,2.98-0.78,4.33,0l9,5.19C61.58,15.06,62.5,15.7,62.67,16.61z M60.44,28.66v-9.9c-2.29,1.31-7.1,4.1-9.43,5.45v10.9
					l8.57-4.95C60.12,29.85,60.44,29.28,60.44,28.66z M55.74,18.49l3.41-1.97l-8.57-4.95c-0.53-0.31-1.21-0.31-1.74,0l-2.34,1.34
					L55.74,18.49z M49.7,21.97l3.48-2l-9.24-5.57l-3.67,2.12L49.7,21.97z M48.43,35.11v-10.9L39,18.75v9.9
					c0,0.62,0.33,1.21,0.86,1.52L48.43,35.11z"/>
				<path class="st1" d="M35.4,43.11v10.38c0,1.55-0.83,2.97-2.17,3.74l-9,5.21c-1.34,0.76-2.95,0.74-4.31,0l-9-5.21
					c-1.33-0.78-2.15-2.19-2.15-3.74v-10.4c0.02-1.55,0.83-2.93,2.15-3.74l9-5.19c1.33-0.76,2.98-0.76,4.33,0
					c0.93,0.69,9.88,5.31,10.24,6.34C35.17,41.11,35.29,42.21,35.4,43.11z M32.79,53.48v-9.9c-2.29,1.33-7.12,4.12-9.43,5.45v10.9
					l8.57-4.95C32.47,54.67,32.79,54.11,32.79,53.48L32.79,53.48z M28.1,43.31l3.41-1.97l-8.59-4.95c-0.53-0.31-1.19-0.31-1.72,0
					l-2.34,1.36L28.1,43.31z M22.07,46.8l3.47-2l-9.24-5.55l-3.65,2.1L22.07,46.8z M20.78,59.93v-10.9l-9.43-5.45v9.9
					c0,0.62,0.33,1.19,0.86,1.5L20.78,59.93z"/>
				<path class="st1" d="M30.59,15.35c0.52,0.52,0.5,1.34,0,1.86l-6.5,6.19c-1.22,1.16-3-0.71-1.78-1.88l4.15-3.96H15
					c-2.02,0-3.65,1.65-3.65,3.67v7.03c0,0.71-0.59,1.29-1.29,1.29c-0.72,0-1.29-0.59-1.29-1.29v-7.03c0-3.45,2.79-6.24,6.24-6.26
					h11.46c-0.03-0.02-4.19-3.98-4.21-4c-1.19-1.21,0.64-3.02,1.83-1.83L30.59,15.35z"/>
			</g>
		</g>
	</g>
</g>
</svg>
